<?xml version="1.0" encoding="UTF-8"?>
<svg width="602px" height="106px" viewBox="0 0 602 106" version="1.1" xmlns="http://www.w3.org/2000/svg" xmlns:xlink="http://www.w3.org/1999/xlink">
    <!-- Generator: Sketch 45.1 (43504) - http://www.bohemiancoding.com/sketch -->
    <title>sideworksLogo</title>
    <desc>Created with Sketch.</desc>
    <defs>
        <linearGradient x1="6.74842438%" y1="49.9811321%" x2="93.1127847%" y2="49.9811321%" id="linearGradient-1">
            <stop stop-color="#0064FF" offset="0%"></stop>
            <stop stop-color="#FF0000" offset="100%"></stop>
        </linearGradient>
        <polygon id="path-2" points="0 106 601.745 106 601.745 0.036 0 0.036"></polygon>
    </defs>
    <g id="Page-1" stroke="none" stroke-width="1" fill="none" fill-rule="evenodd">
        <g id="sideworksLogo">
            <g id="CI">
                <g id="symbol" fill-rule="nonzero" fill="url(#linearGradient-1)">
                    <path d="M378.61,0 C269.06,10.16 163.8,38.57 66.47,77.37 C43.9166667,86.3633333 21.76,95.9066667 0,106 L60.9,106 C148.27,65.73 242.38,33 341.8,13.91 C373.933333,7.71666667 406.503333,3.08 439.51,0" id="Shape"></path>
                </g>
                <g id="logo">
                    <path d="M252.4491,74.4228 L227.3201,74.4228 L227.3201,82.6508 L251.2431,82.6508 C254.9071,82.6508 257.4211,83.2688 258.7831,84.5038 C260.1441,85.7388 260.8261,88.1358 260.8261,91.6938 L260.8261,96.9568 C260.8261,100.5148 260.1441,102.9118 258.7861,104.1468 C257.4281,105.3828 254.9201,105.9998 251.2621,105.9998 L227.6161,105.9998 C223.9591,105.9998 221.4511,105.3828 220.0931,104.1468 C218.7341,102.9118 218.0541,100.5148 218.0541,96.9568 L218.0541,95.9188 L225.9131,95.9448 L225.9131,98.8098 L252.9681,98.8098 L252.9681,90.0628 L229.1001,90.0628 C225.4411,90.0628 222.9471,89.4458 221.6121,88.2098 C220.2781,86.9758 219.6121,84.5778 219.6121,81.0198 L219.6121,76.7948 C219.6121,73.2368 220.2781,70.8398 221.6121,69.6048 C222.9471,68.3698 225.4411,67.7508 229.1001,67.7508 L250.8191,67.7508 C254.3261,67.7508 256.7861,68.3438 258.1941,69.5298 C259.6011,70.7158 260.3051,72.9158 260.3051,76.1278 L260.3051,76.9428 L252.4541,76.9698 L252.4491,74.4228 Z" id="Fill-3" fill="#4D4D4D"></path>
                    <mask id="mask-3" fill="white">
                        <use xlink:href="#path-2"></use>
                    </mask>
                    <g id="Clip-6"></g>
                    <polygon id="Fill-5" fill="#4D4D4D" mask="url(#mask-3)" points="269.075 105.999 276.71 105.999 276.71 74.644 269.075 74.644"></polygon>
                    <path d="M293.1278,100.144 L302.9858,100.144 C308.0748,100.144 311.7078,99.453 313.8838,98.069 C316.3038,96.487 317.5158,93.745 317.5158,89.84 C317.5158,83.466 313.8838,80.278 306.6178,80.278 L293.1278,80.278 L293.1278,100.144 Z M285.4198,106 L285.4198,74.644 L306.5448,74.644 C312.6708,74.644 317.3418,76.005 320.5548,78.722 C323.7668,81.44 325.3738,85.27 325.3738,90.211 C325.3738,100.737 318.4538,106 304.6178,106 L285.4198,106 Z" id="Fill-7" fill="#4D4D4D" mask="url(#mask-3)"></path>
                    <polygon id="Fill-8" fill="#4D4D4D" mask="url(#mask-3)" points="330.9647 105.9999 330.9647 74.6449 364.6167 74.6449 364.6167 80.2039 338.6737 80.2039 338.6737 87.0239 353.7947 87.0239 353.7947 92.4349 338.6737 92.4349 338.6737 100.1439 364.9887 100.1439 364.9887 105.9999"></polygon>
                    <polygon id="Fill-9" fill="#4D4D4D" mask="url(#mask-3)" points="385.9403 105.9999 371.1893 67.7509 380.3813 67.7509 390.0933 93.3979 400.2493 67.7509 406.4743 67.7509 416.8513 93.3979 426.1183 67.7509 434.0493 67.7509 419.2983 105.9999 413.2943 105.9999 402.7683 79.5369 392.0933 105.9999"></polygon>
                    <path d="M442.817,99.996 L468.02,99.996 L468.02,80.427 L442.817,80.427 L442.817,99.996 Z M435.108,82.057 C435.108,79.092 435.677,77.117 436.815,76.127 C437.954,75.14 440.107,74.644 443.277,74.644 L467.559,74.644 C470.728,74.644 472.883,75.14 474.019,76.127 C475.158,77.117 475.728,79.092 475.728,82.057 L475.728,98.587 C475.728,101.504 475.145,103.468 473.984,104.48 C472.82,105.494 470.679,106 467.559,106 L443.277,106 C440.107,106 437.954,105.494 436.815,104.48 C435.677,103.468 435.108,101.504 435.108,98.587 L435.108,82.057 Z" id="Fill-10" fill="#4D4D4D" mask="url(#mask-3)"></path>
                    <path d="M508.0028,80.0561 L490.5828,80.0561 L490.5828,88.7281 L508.0028,88.7281 C510.3248,88.7281 511.4868,87.8891 511.4868,86.2081 L511.4868,82.5761 C511.4868,80.8971 510.3248,80.0561 508.0028,80.0561 L508.0028,80.0561 Z M483.0228,106.0001 L483.0228,74.6441 L511.2638,74.6441 C516.1558,74.6441 518.6038,76.6721 518.6038,80.7231 L518.6038,88.1361 C518.6038,92.1381 516.1558,94.1401 511.2638,94.1401 L506.9648,94.1401 L521.8638,106.0001 L510.8938,106.0001 L497.7738,94.1401 L490.5828,94.1401 L490.5828,106.0001 L483.0228,106.0001 Z" id="Fill-11" fill="#4D4D4D" mask="url(#mask-3)"></path>
                    <polygon id="Fill-12" fill="#4D4D4D" mask="url(#mask-3)" points="525.5858 105.9999 525.5858 74.6449 533.2958 74.6449 533.2958 87.3199 551.6038 74.6449 562.6488 74.6449 541.0038 89.1739 565.0948 105.9999 553.0128 105.9999 533.2958 91.8419 533.2958 105.9999"></polygon>
                    <path d="M594.7762,80.2783 L573.2062,80.2783 L573.2062,86.8763 L593.5892,86.8763 C596.7522,86.8763 598.9022,87.3823 600.0392,88.3953 C601.1762,89.4083 601.7452,91.3733 601.7452,94.2883 L601.7452,98.5873 C601.7452,101.5043 601.1762,103.4683 600.0392,104.4803 C598.9022,105.4933 596.7522,106.0003 593.5892,106.0003 L573.2062,106.0003 C570.0422,106.0003 567.8802,105.4933 566.7202,104.4803 C565.5582,103.4683 564.9782,101.5043 564.9782,98.5873 L564.9782,97.6983 L571.7972,97.6793 L571.7972,100.1443 L594.8502,100.1443 L594.8502,92.9543 L574.5402,92.9543 C571.4272,92.9543 569.2772,92.4473 568.0912,91.4343 C566.9052,90.4223 566.3112,88.4573 566.3112,85.5413 L566.3112,82.0573 C566.3112,79.1423 566.9052,77.1773 568.0912,76.1643 C569.2772,75.1523 571.4272,74.6443 574.5402,74.6443 L593.1462,74.6443 C596.1602,74.6443 598.2862,75.1143 599.5212,76.0533 C600.7552,76.9923 601.3752,78.7963 601.3752,81.4643 L601.3752,82.2053 L594.7762,82.2033 L594.7762,80.2783 Z" id="Fill-13" fill="#4D4D4D" mask="url(#mask-3)"></path>
                </g>
            </g>
        </g>
    </g>
</svg>